<?xml version="1.0" encoding="utf-8"?>
<!-- Generator: Adobe Illustrator 15.0.2, SVG Export Plug-In . SVG Version: 6.00 Build 0)  -->
<!DOCTYPE svg PUBLIC "-//W3C//DTD SVG 1.1//EN" "http://www.w3.org/Graphics/SVG/1.1/DTD/svg11.dtd">
<svg version="1.1" id="Layer_1" xmlns="http://www.w3.org/2000/svg" xmlns:xlink="http://www.w3.org/1999/xlink" x="0px" y="0px"
	 width="14px" height="14px" viewBox="0 0 14 14" enable-background="new 0 0 14 14" xml:space="preserve">
<g>
	<path d="M0,0v14h14V0H0z M13,12.291c-0.385,0-0.846-0.11-1.385-0.146C11.154,12.109,10.692,12,10.231,12c-0.366,0-0.684,0-0.952,0
		l-1.442,0.172l-0.433,0.073c0-0.215,0.01-0.37,0.029-0.513l0.952-0.177c0.27-0.054,0.433-0.093,0.49-0.128
		c0.058-0.071,0.087-0.135,0.087-0.198c0-0.063-0.02-0.127-0.058-0.198L8.587,10.39L7.923,9h-3.26c-0.135,0-0.385,0.757-0.75,1.686
		C3.817,10.972,3.77,11.092,3.77,11.18c0,0.143,0.038,0.208,0.115,0.262C4,11.53,4.25,11.584,4.635,11.638
		c0.115,0.018,0.216,0.027,0.303,0.046c0.086,0.018,0.178,0.021,0.274,0.021c0.019,0.125,0.029,0.257,0.029,0.4
		c0,0.071-0.01,0.133-0.029,0.187c-0.308,0-1.144-0.054-2.509-0.161l-0.346-0.093C1.971,12.109,1.567,12,1.144,12H1v-0.245
		c0.115-0.036,0.308-0.071,0.577-0.107c0.442-0.071,0.711-0.143,0.808-0.214c0.096-0.071,0.211-0.223,0.346-0.455l1.702-4.128
		L6.452,2H7h0.375l0.087,0.137l1.471,3.215c0.5,1.09,0.798,1.76,0.895,2.01c0.192,0.446,0.423,0.964,0.692,1.554
		c0.134,0.268,0.288,0.634,0.462,1.098c0.115,0.304,0.278,0.635,0.49,0.991c0.096,0.232,0.183,0.366,0.26,0.402
		c0.096,0.089,0.259,0.134,0.49,0.134c0.211,0.035,0.451,0.098,0.721,0.188C12.98,11.906,13,12.04,13,12.13
		C13,12.184,13,12.237,13,12.291z"/>
	<path d="M6.221,4.898l-1.211,3c0.346,0,0.711,0.042,1.096,0.051C6.49,7.958,6.774,8,6.957,8C7.14,8,7.269,8,7.346,8h0.202
		C7.394,7,7.173,6.989,6.885,6.328C6.635,5.757,6.413,5.255,6.221,4.898z"/>
</g>
</svg>
