<?xml version="1.0" encoding="utf-8"?>
<!-- Generator: Adobe Illustrator 15.0.2, SVG Export Plug-In . SVG Version: 6.00 Build 0)  -->
<!DOCTYPE svg PUBLIC "-//W3C//DTD SVG 1.1//EN" "http://www.w3.org/Graphics/SVG/1.1/DTD/svg11.dtd">
<svg version="1.1" id="Layer_1" xmlns="http://www.w3.org/2000/svg" xmlns:xlink="http://www.w3.org/1999/xlink" x="0px" y="0px"
	 width="14px" height="14px" viewBox="0 0 14 14" enable-background="new 0 0 14 14" xml:space="preserve">
<g>
	<rect x="5" y="11" width="1" height="1"/>
	<rect x="7" y="11" width="1" height="1"/>
	<rect x="4" y="10" width="1" height="1"/>
	<rect x="9" y="9" width="1" height="1"/>
	<rect x="3" y="11" width="1" height="1"/>
	<rect x="9" y="7" width="1" height="1"/>
	<rect x="10" y="10" width="1" height="1"/>
	<rect x="11" y="7" width="1" height="1"/>
	<rect x="11" y="11" width="1" height="1"/>
	<rect x="11" y="9" width="1" height="1"/>
	<rect x="9" y="11" width="1" height="1"/>
	<rect x="11" y="5" width="1" height="1"/>
	<rect x="10" y="4" width="1" height="1"/>
	<rect x="9" y="5" width="1" height="1"/>
	<rect x="6" y="10" width="1" height="1"/>
	<rect x="8" y="10" width="1" height="1"/>
	<rect x="8" y="8" width="1" height="1"/>
	<rect x="10" y="8" width="1" height="1"/>
	<rect x="10" y="6" width="1" height="1"/>
	<rect x="6" y="8" width="1" height="1"/>
	<rect x="5" y="9" width="1" height="1"/>
	<rect x="8" y="6" width="1" height="1"/>
	<rect x="7" y="9" width="1" height="1"/>
	<rect x="7" y="7" width="1" height="1"/>
	<rect x="11" y="3" width="1" height="1"/>
	<rect x="13" y="13" width="1" height="1"/>
	<rect x="12" y="10" width="1" height="1"/>
	<rect x="9" y="13" width="1" height="1"/>
	<rect x="12" y="8" width="1" height="1"/>
	<rect x="12" y="12" width="1" height="1"/>
	<rect x="10" y="12" width="1" height="1"/>
	<rect x="11" y="13" width="1" height="1"/>
	<rect x="13" y="11" width="1" height="1"/>
	<rect x="12" y="2" width="1" height="1"/>
	<rect x="13" y="9" width="1" height="1"/>
	<rect x="13" y="5" width="1" height="1"/>
	<rect x="13" y="1" width="1" height="1"/>
	<rect x="12" y="4" width="1" height="1"/>
	<rect x="12" y="6" width="1" height="1"/>
	<rect x="13" y="7" width="1" height="1"/>
	<rect x="13" y="3" width="1" height="1"/>
	<rect x="4" y="12" width="1" height="1"/>
	<rect x="1" y="13" width="1" height="1"/>
	<rect x="3" y="13" width="1" height="1"/>
	<rect x="2" y="12" width="1" height="1"/>
	<rect x="5" y="13" width="1" height="1"/>
	<rect x="6" y="12" width="1" height="1"/>
	<rect x="7" y="13" width="1" height="1"/>
	<polygon points="2,12 2,11 3,11 3,10 4,10 4,9 5,9 5,8 6,8 6,7 7,7 7,6 8,6 8,5 9,5 9,4 10,4 10,3 11,3 11,2 12,2 12,1 13,1 13,0 
		0,0 0,13 1,13 1,12 	"/>
	<rect x="8" y="12" width="1" height="1"/>
</g>
</svg>
